<svg xmlns="http://www.w3.org/2000/svg" viewBox="0 0 120 120" fill="none">
  <path
    d="M60 8C40 8 28 28 28 48c0 24 16 44 32 64 16-20 32-40 32-64 0-20-12-40-32-40z"
    fill="#F5D547"
    opacity="0.9"></path>
  <path
    d="M60 20c-14 0-22 14-22 28 0 18 10 34 22 48 12-14 22-30 22-48 0-14-8-28-22-28z"
    fill="#FFF8E7"></path>
  <path
    d="M60 28c-8 0-14 10-14 20 0 12 6 22 14 32 8-10 14-20 14-32 0-10-6-20-14-20z"
    fill="#FDE68A"></path>
  <ellipse cx="52" cy="42" rx="6" ry="4" fill="#FFF" opacity="0.5"></ellipse>
  <path
    d="M58 8 L62 8 L60 2 Z"
    fill="#E8D5F2"
    stroke="#B794D4"
    stroke-width="1"></path>
</svg>
